<svg width="16" height="16" viewBox="0 0 16 16" fill="none" xmlns="http://www.w3.org/2000/svg">
<g clip-path="url(#clip0_186_2876)">
<path d="M4.99997 11.4996C5.04683 11.4531 5.08403 11.3978 5.10942 11.3368C5.1348 11.2759 5.14787 11.2106 5.14787 11.1446C5.14787 11.0786 5.1348 11.0132 5.10942 10.9523C5.08403 10.8913 5.04684 10.836 4.99997 10.7896L2.69997 8.48956L14.47 8.48956C14.6026 8.48956 14.7298 8.43688 14.8235 8.34312C14.9173 8.24935 14.97 8.12217 14.97 7.98956C14.97 7.85695 14.9173 7.72978 14.8235 7.63601C14.7298 7.54224 14.6026 7.48956 14.47 7.48956L2.70997 7.48956L4.99997 5.20456C5.0931 5.11088 5.14537 4.98415 5.14537 4.85206C5.14537 4.71997 5.0931 4.59324 4.99997 4.49956C4.90629 4.40644 4.77956 4.35416 4.64747 4.35416C4.51538 4.35416 4.38865 4.40644 4.29497 4.49956L1.11497 7.67956C1.07217 7.72063 1.03811 7.76992 1.01485 7.82448C0.991584 7.87904 0.979592 7.93775 0.979592 7.99706C0.979592 8.05638 0.991584 8.11508 1.01485 8.16964C1.03811 8.2242 1.07217 8.2735 1.11497 8.31456L4.28997 11.4996C4.33645 11.5464 4.39175 11.5836 4.45268 11.609C4.51361 11.6344 4.57897 11.6475 4.64497 11.6475C4.71098 11.6475 4.77633 11.6344 4.83726 11.609C4.89819 11.5836 4.95349 11.5464 4.99997 11.4996Z" fill="#1B1B1B"/>
</g>
<defs>
<clipPath id="clip0_186_2876">
<rect width="16" height="16" fill="white" transform="translate(16 16) rotate(-180)"/>
</clipPath>
</defs>
</svg>
