<svg width="14" height="14" viewBox="0 0 14 14" fill="none" xmlns="http://www.w3.org/2000/svg">
<path d="M13.6028 2.52051L11.4796 0.397423C11.2234 0.141127 10.8826 0 10.5202 0C10.1578 0 9.81706 0.141127 9.56079 0.397415L0.673401 9.28467C0.589045 9.36902 0.534667 9.47873 0.518638 9.59694L0.00495696 13.3813C-0.0179397 13.5501 0.0393019 13.7198 0.159745 13.8403C0.262697 13.9432 0.401695 14 0.545323 14C0.569689 14 0.594212 13.9984 0.618709 13.995L4.40308 13.4814C4.52131 13.4653 4.63101 13.411 4.71537 13.3266L13.6028 4.43938C13.859 4.1831 14.0002 3.84236 14.0002 3.47995C14.0002 3.11751 13.859 2.77678 13.6028 2.52051ZM4.07416 12.4253L1.18211 12.8179L1.57467 9.92586L7.87252 3.62811L10.372 6.12759L4.07416 12.4253ZM12.8315 3.66812L11.1432 5.35634L8.64376 2.85687L10.332 1.16866C10.3998 1.10083 10.479 1.09069 10.5202 1.09069C10.5614 1.09069 10.6406 1.10083 10.7084 1.16866L12.8315 3.29174C12.8993 3.35957 12.9095 3.43877 12.9095 3.47993C12.9095 3.52109 12.8993 3.60029 12.8315 3.66812Z" fill="black"/>
</svg>
