<svg width="15" height="20" viewBox="0 0 15 20" fill="none" xmlns="http://www.w3.org/2000/svg">
<path d="M7 10C5.67392 10 4.40215 9.47322 3.46447 8.53553C2.52678 7.59785 2 6.32608 2 5C2 3.67392 2.52678 2.40215 3.46447 1.46447C4.40215 0.526784 5.67392 0 7 0C8.32608 0 9.59785 0.526784 10.5355 1.46447C11.4732 2.40215 12 3.67392 12 5C12 6.32608 11.4732 7.59785 10.5355 8.53553C9.59785 9.47322 8.32608 10 7 10ZM7 8C7.39397 8 7.78407 7.9224 8.14805 7.77164C8.51203 7.62087 8.84274 7.3999 9.12132 7.12132C9.3999 6.84274 9.62087 6.51203 9.77164 6.14805C9.9224 5.78407 10 5.39397 10 5C10 4.60603 9.9224 4.21593 9.77164 3.85195C9.62087 3.48797 9.3999 3.15726 9.12132 2.87868C8.84274 2.6001 8.51203 2.37913 8.14805 2.22836C7.78407 2.0776 7.39397 2 7 2C6.20435 2 5.44129 2.31607 4.87868 2.87868C4.31607 3.44129 4 4.20435 4 5C4 5.79565 4.31607 6.55871 4.87868 7.12132C5.44129 7.68393 6.20435 8 7 8ZM15 19C15 19.2652 14.8946 19.5196 14.7071 19.7071C14.5196 19.8946 14.2652 20 14 20C13.7348 20 13.4804 19.8946 13.2929 19.7071C13.1054 19.5196 13 19.2652 13 19V17C13 16.2044 12.6839 15.4413 12.1213 14.8787C11.5587 14.3161 10.7956 14 10 14H5C4.20435 14 3.44129 14.3161 2.87868 14.8787C2.31607 15.4413 2 16.2044 2 17V19C2 19.2652 1.89464 19.5196 1.70711 19.7071C1.51957 19.8946 1.26522 20 1 20C0.734784 20 0.48043 19.8946 0.292893 19.7071C0.105357 19.5196 0 19.2652 0 19V17C0 15.6739 0.526784 14.4021 1.46447 13.4645C2.40215 12.5268 3.67392 12 5 12H10C11.3261 12 12.5979 12.5268 13.5355 13.4645C14.4732 14.4021 15 15.6739 15 17V19Z" fill="white"/>
</svg>
