<svg width="16" height="16" viewBox="0 0 16 16" fill="none" xmlns="http://www.w3.org/2000/svg">
<path d="M11 4.49995C10.9532 4.54643 10.916 4.60173 10.8906 4.66266C10.8652 4.72359 10.8521 4.78894 10.8521 4.85495C10.8521 4.92096 10.8652 4.98631 10.8906 5.04724C10.916 5.10817 10.9532 5.16347 11 5.20995L13.3 7.50995H1.53003C1.39742 7.50995 1.27024 7.56263 1.17648 7.6564C1.08271 7.75016 1.03003 7.87734 1.03003 8.00995C1.03003 8.14256 1.08271 8.26973 1.17648 8.3635C1.27024 8.45727 1.39742 8.50995 1.53003 8.50995H13.29L11 10.795C10.9069 10.8886 10.8546 11.0154 10.8546 11.1474C10.8546 11.2795 10.9069 11.4063 11 11.4999C11.0937 11.5931 11.2204 11.6453 11.3525 11.6453C11.4846 11.6453 11.6113 11.5931 11.705 11.4999L14.885 8.31995C14.9278 8.27888 14.9619 8.22959 14.9852 8.17503C15.0084 8.12047 15.0204 8.06176 15.0204 8.00245C15.0204 7.94313 15.0084 7.88443 14.9852 7.82987C14.9619 7.77531 14.9278 7.72601 14.885 7.68495L11.71 4.49995C11.6635 4.45309 11.6082 4.41589 11.5473 4.3905C11.4864 4.36512 11.421 4.35205 11.355 4.35205C11.289 4.35205 11.2237 4.36512 11.1627 4.3905C11.1018 4.41589 11.0465 4.45309 11 4.49995Z" fill="black"/>
</svg>
