<svg width="15" height="8" viewBox="0 0 15 8" fill="none" xmlns="http://www.w3.org/2000/svg">
<path d="M4.99973 7.49999C5.04659 7.45351 5.08379 7.39821 5.10917 7.33728C5.13456 7.27635 5.14763 7.21099 5.14763 7.14499C5.14763 7.07898 5.13456 7.01363 5.10917 6.9527C5.08379 6.89177 5.04659 6.83647 4.99973 6.78999L2.69973 4.48999L14.4697 4.48999C14.6023 4.48999 14.7295 4.43731 14.8233 4.34354C14.917 4.24977 14.9697 4.1226 14.9697 3.98999C14.9697 3.85738 14.917 3.7302 14.8233 3.63644C14.7295 3.54267 14.6023 3.48999 14.4697 3.48999L2.70973 3.48999L4.99973 1.20499C5.09285 1.11131 5.14512 0.984581 5.14512 0.852488C5.14512 0.720395 5.09285 0.59367 4.99973 0.499988C4.90605 0.406863 4.77932 0.354592 4.64723 0.354592C4.51513 0.354592 4.38841 0.406863 4.29473 0.499988L1.11473 3.67999C1.07193 3.72105 1.03787 3.77035 1.0146 3.82491C0.99134 3.87947 0.979348 3.93817 0.979348 3.99749C0.979348 4.0568 0.99134 4.1155 1.0146 4.17007C1.03787 4.22463 1.07193 4.27392 1.11473 4.31499L4.28973 7.49999C4.33621 7.54685 4.39151 7.58405 4.45244 7.60943C4.51337 7.63482 4.57872 7.64789 4.64473 7.64789C4.71073 7.64789 4.77608 7.63482 4.83701 7.60943C4.89794 7.58405 4.95325 7.54685 4.99973 7.49999Z" fill="#B82347"/>
</svg>
