<svg width="24" height="24" viewBox="0 0 24 24" fill="none" xmlns="http://www.w3.org/2000/svg">
<path fill-rule="evenodd" clip-rule="evenodd" d="M18 19V17C19.6569 17 21 15.6569 21 14C21 12.3431 19.6569 11 18 11C17.9687 11.0001 17.9687 11.0001 17.9375 11.0006L17.0738 11.0182L16.9309 10.1662C16.5303 7.77626 14.4511 6 12 6C10.1924 6 8.5543 6.96643 7.66642 8.50398L7.39066 8.98151L6.83966 9.00314C4.69934 9.08715 3 10.8504 3 13C3 14.8638 4.27477 16.4299 6 16.874V18.917C3.16229 18.441 1 15.973 1 13C1 9.95877 3.26703 7.43346 6.21989 7.05027C7.50902 5.16507 9.65344 4 12 4C15.1586 4 17.875 6.10562 18.7254 9.05224C21.1431 9.40363 23 11.485 23 14C23 16.7614 20.7614 19 18 19ZM11 18.2533V12H13V18.2533L15.2929 16.0093L16.7071 17.3933L12 22L7.29289 17.3933L8.70711 16.0093L11 18.2533Z" fill="#86C582"/>
</svg>
