<svg width="25" height="25" viewBox="0 0 25 25" fill="none" xmlns="http://www.w3.org/2000/svg">
<path d="M12.5 25C5.59623 25 0 19.4038 0 12.5C0 5.59623 5.59623 0 12.5 0C19.4038 0 25 5.59623 25 12.5C25 19.4038 19.4038 25 12.5 25ZM12.5 1.35984C6.38075 1.35984 1.35984 6.38075 1.35984 12.5C1.35984 18.6192 6.38075 23.6402 12.5 23.6402C18.6192 23.6402 23.6402 18.6192 23.6402 12.5C23.6402 6.38075 18.6192 1.35984 12.5 1.35984Z" fill="#B82347"/>
<path d="M5.17759 21.5481L3.92236 20.9728C4.28847 20.0837 5.4391 19.613 6.74663 19.0377C8.00186 18.4624 9.57089 17.7824 9.57089 16.9456V15.795C9.10018 15.4289 8.36796 14.5921 8.26336 13.3891C7.89725 13.023 7.32195 12.3431 7.32195 11.5063C7.32195 10.9833 7.53115 10.5649 7.68805 10.3034C7.58345 9.72805 7.37424 8.57743 7.37424 7.6883C7.37424 4.81173 9.36169 2.92889 12.4998 2.92889C13.3889 2.92889 14.4872 3.19039 15.0625 3.81801C16.4747 4.07951 17.6253 5.75316 17.6253 7.6883C17.6253 8.94354 17.4161 9.98956 17.2592 10.4603C17.4161 10.7218 17.573 11.0879 17.573 11.5063C17.573 12.5 17.1023 13.1276 16.6316 13.4414C16.527 14.6444 15.8471 15.4289 15.4286 15.795V16.9456C15.4286 17.6778 16.7362 18.1486 17.9391 18.6193C19.3512 19.1423 20.8157 19.6653 21.2864 20.8682L19.9789 21.3389C19.7696 20.7113 18.5144 20.2929 17.4684 19.8745C15.847 19.2992 14.0165 18.6193 14.0165 16.9456V15.0628L14.3303 14.8536C14.3826 14.8536 15.2717 14.226 15.2717 13.023V12.5523L15.6901 12.3954C15.7425 12.3431 16.1609 12.1339 16.1609 11.5063C16.1609 11.2971 16.004 11.0879 15.9517 11.0356L15.6901 10.7218L15.7948 10.3557C15.7948 10.3557 16.1609 9.20504 16.1609 7.636C16.1609 6.32847 15.4286 5.12554 14.6441 5.12554H14.2257L14.0165 4.75944C13.8596 4.49793 13.232 4.23643 12.3952 4.23643C10.0416 4.23643 8.62948 5.49165 8.62948 7.636C8.62948 8.62972 8.99558 10.2511 8.99558 10.2511L9.10019 10.6172L8.83868 10.8787C8.83868 10.8787 8.62948 11.1402 8.62948 11.4017C8.62948 11.7678 9.10018 12.2385 9.30939 12.4477L9.57089 12.6569V13.023C9.57089 14.1737 10.5646 14.8013 10.5646 14.8013L10.8784 15.0105V16.8933C10.8784 18.6193 8.94328 19.5084 7.21734 20.2406C6.48512 20.659 5.3868 21.182 5.17759 21.5481Z" fill="#B82347"/>
</svg>
