<svg width="32" height="32" viewBox="0 0 32 32" fill="none" xmlns="http://www.w3.org/2000/svg">
<path d="M22.0001 9C21.9063 9.09296 21.8319 9.20356 21.7812 9.32542C21.7304 9.44728 21.7043 9.57799 21.7043 9.71C21.7043 9.84201 21.7304 9.97272 21.7812 10.0946C21.8319 10.2164 21.9063 10.327 22.0001 10.42L26.6001 15.02H3.06006C2.79484 15.02 2.54049 15.1254 2.35295 15.3129C2.16542 15.5004 2.06006 15.7548 2.06006 16.02C2.06006 16.2852 2.16542 16.5396 2.35295 16.7271C2.54049 16.9146 2.79484 17.02 3.06006 17.02H26.5801L22.0001 21.59C21.8138 21.7774 21.7093 22.0308 21.7093 22.295C21.7093 22.5592 21.8138 22.8126 22.0001 23C22.1874 23.1862 22.4409 23.2908 22.7051 23.2908C22.9692 23.2908 23.2227 23.1862 23.4101 23L29.7701 16.64C29.8557 16.5579 29.9238 16.4593 29.9703 16.3502C30.0168 16.241 30.0408 16.1236 30.0408 16.005C30.0408 15.8864 30.0168 15.769 29.9703 15.6598C29.9238 15.5507 29.8557 15.4521 29.7701 15.37L23.4201 9C23.3271 8.90627 23.2165 8.83188 23.0946 8.78111C22.9728 8.73034 22.8421 8.7042 22.7101 8.7042C22.578 8.7042 22.4473 8.73034 22.3255 8.78111C22.2036 8.83188 22.093 8.90627 22.0001 9Z" fill="black"/>
</svg>
