<svg width="32" height="32" viewBox="0 0 32 32" fill="none" xmlns="http://www.w3.org/2000/svg">
<g clip-path="url(#clip0_50_1856)">
<path d="M16 0.5C15.1719 0.5 14.5 1.17188 14.5 2V6C14.5 6.82813 15.1719 7.5 16 7.5C16.8281 7.5 17.5 6.82812 17.5 6V2C17.5 1.17188 16.8281 0.5 16 0.5Z" fill="black"/>
<path d="M7.5 16C7.5 15.1719 6.82812 14.5 6 14.5H2C1.17187 14.5 0.5 15.1719 0.5 16C0.5 16.8281 1.17188 17.5 2 17.5H6C6.82813 17.5 7.5 16.8281 7.5 16Z" fill="black"/>
<path d="M7.86817 22.0107L5.04004 24.8389C4.4541 25.4248 4.4541 26.374 5.04004 26.96C5.33301 27.2529 5.7168 27.3994 6.10059 27.3994C6.48438 27.3994 6.86817 27.2529 7.16114 26.96L9.98927 24.1318C10.5752 23.5459 10.5752 22.5967 9.98927 22.0107C9.40333 21.4248 8.45411 21.4248 7.86817 22.0107Z" fill="black"/>
<path d="M16 24.5C15.1719 24.5 14.5 25.1719 14.5 26V30C14.5 30.8281 15.1719 31.5 16 31.5C16.8281 31.5 17.5 30.8281 17.5 30V26C17.5 25.1719 16.8281 24.5 16 24.5Z" fill="black"/>
<path d="M24.1318 22.0107C23.5459 21.4248 22.5967 21.4248 22.0107 22.0107C21.4248 22.5967 21.4248 23.5459 22.0107 24.1318L24.8389 26.96C25.1318 27.2529 25.5156 27.3994 25.8994 27.3994C26.2832 27.3994 26.667 27.2529 26.96 26.96C27.5459 26.374 27.5459 25.4248 26.96 24.8389L24.1318 22.0107Z" fill="black"/>
<path d="M30 14.5H26C25.1719 14.5 24.5 15.1719 24.5 16C24.5 16.8281 25.1719 17.5 26 17.5H30C30.8281 17.5 31.5 16.8281 31.5 16C31.5 15.1719 30.8281 14.5 30 14.5Z" fill="black"/>
<path d="M23.0713 10.4287C23.4551 10.4287 23.8389 10.2822 24.1318 9.98926L26.96 7.16113C27.5459 6.57519 27.5459 5.62597 26.96 5.04004C26.374 4.45411 25.4248 4.4541 24.8389 5.04004L22.0107 7.86817C21.4248 8.45411 21.4248 9.40333 22.0107 9.98926C22.3037 10.2822 22.6875 10.4287 23.0713 10.4287Z" fill="black"/>
</g>
<defs>
<clipPath id="clip0_50_1856">
<rect width="32" height="32" fill="white"/>
</clipPath>
</defs>
</svg>
